<?xml version="1.0" standalone="no"?>
<!DOCTYPE svg PUBLIC "-//W3C//DTD SVG 20010904//EN"
 "http://www.w3.org/TR/2001/REC-SVG-20010904/DTD/svg10.dtd">
<svg version="1.0" xmlns="http://www.w3.org/2000/svg"
 width="1667.000000pt" height="2500.000000pt" viewBox="0 0 1667.000000 2500.000000"
 preserveAspectRatio="xMidYMid meet">

<g transform="translate(0.000000,2500.000000) scale(0.100000,-0.100000)"
fill="#000000" stroke="none">
<path d="M4010 24993 c-1265 -46 -2454 -679 -3202 -1705 -418 -572 -672 -1210
-770 -1932 -19 -139 -22 -208 -23 -511 0 -356 5 -425 46 -685 47 -301 155
-672 278 -960 514 -1199 1567 -2096 2825 -2405 190 -47 338 -74 552 -102 117
-15 340 -17 2372 -20 l2242 -4 0 4166 0 4165 -2122 -2 c-1168 -1 -2157 -3
-2198 -5z"/>
<path d="M3825 16649 c-1257 -109 -2393 -772 -3097 -1809 -380 -560 -604
-1158 -695 -1855 -26 -201 -26 -769 0 -970 65 -496 191 -924 398 -1345 344
-701 873 -1286 1542 -1705 435 -272 941 -467 1452 -560 348 -63 174 -59 2648
-62 l2257 -4 0 4161 0 4160 -2202 -1 c-1212 -1 -2248 -6 -2303 -10z"/>
</g>
</svg>
